# File created by Blade
# Date/Time:  Wed Jan 21 19:14:05 2015
#---------------------------------------------------------
:version 1.10
:name HOM
:units
  mass 1.0
  length 1.000000
  angle deg
:documentation
     Acclaim Skeleton File
:root
   axis xyz
   order TX TY TZ RX RY RZ
   position 0.000000 0.000000 0.000000
   orientation 0 0 0
:bonedata
   begin
      id 1
      name RightUpLeg_dum
      direction -1.000000 0.000000 0.000000
      length 3.693983
      axis 0.0 0.0 0.0 xyz
   end
   begin
      id 2
      name LeftUpLeg_dum
      direction 1.000000 0.000000 0.000000
      length 3.693983
      axis 0.0 0.0 0.0 xyz
   end
   begin
      id 3
      name Spine_dum
      direction 0.000000 1.000000 0.000000
      length 2.392956
      axis 0.0 0.0 0.0 xyz
   end
   begin
      id 4
      name RightUpLeg
      direction 0.000000 -1.000000 0.000000
      length 15.795667
      axis 0.0 0.0 0.0 xyz
      dof rx ry rz
   end
   begin
      id 5
      name RightLeg
      direction 0.000000 -1.000000 0.000000
      length 14.766989
      axis 0.0 0.0 0.0 xyz
      dof rx ry rz
   end
   begin
      id 6
      name RightFoot
      direction 0.000000 -0.258819 0.965926
      length 4.962790
      axis 15.0 0.0 0.0 xyz
      dof rx ry rz
   end
   begin
      id 7
      name RightToeBase
      direction 0.000000 0.000000 1.000000
      length 2.952750
      axis 0.0 0.0 0.0 xyz
      dof rx ry rz
   end
   begin
      id 8
      name LeftUpLeg
      direction 0.000000 -1.000000 0.000000
      length 15.795667
      axis 0.0 0.0 0.0 xyz
      dof rx ry rz
   end
   begin
      id 9
      name LeftLeg
      direction 0.000000 -1.000000 0.000000
      length 14.766989
      axis 0.0 0.0 0.0 xyz
      dof rx ry rz
   end
   begin
      id 10
      name LeftFoot
      direction 0.000000 -0.258819 0.965926
      length 4.962790
      axis 15.0 0.0 0.0 xyz
      dof rx ry rz
   end
   begin
      id 11
      name LeftToeBase
      direction 0.000000 0.000000 1.000000
      length 2.952750
      axis 0.0 0.0 0.0 xyz
      dof rx ry rz
   end
   begin
      id 12
      name Spine
      direction 0.000000 1.000000 0.000000
      length 0.000000
      axis 0.0 0.0 0.0 xyz
      dof rx ry rz
   end
   begin
      id 13
      name Spine_dum1
      direction 0.000000 1.000000 0.000000
      length 13.207411
      axis 0.0 0.0 0.0 xyz
   end
   begin
      id 14
      name Spine_dum2
      direction 0.000000 1.000000 0.000000
      length 13.207411
      axis 0.0 0.0 0.0 xyz
   end
   begin
      id 15
      name Spine_dum3
      direction 0.000000 1.000000 0.000000
      length 19.250100
      axis 0.0 0.0 0.0 xyz
   end
   begin
      id 16
      name RightShoulder
      direction -1.000000 0.000000 0.000000
      length 8.140465
      axis 0.0 0.0 90.0 xyz
      dof rx ry rz
   end
   begin
      id 17
      name RightArm
      direction -1.000000 0.000000 0.000000
      length 10.649840
      axis 0.0 0.0 90.0 xyz
      dof rx ry rz
   end
   begin
      id 18
      name RightForeArm
      direction -1.000000 0.000000 0.000000
      length 8.304624
      axis 0.0 0.0 90.0 xyz
      dof ry rz rx
   end
   begin
      id 19
      name RightHand
      direction -1.000000 0.000000 0.000000
      length 0.000000
      axis 0.0 0.0 90.0 xyz
      dof rx ry rz
   end
   begin
      id 20
      name RightHand_dum1
      direction -1.000000 0.000000 0.000000
      length 3.937000
      axis 0.0 0.0 90.0 xyz
   end
   begin
      id 21
      name RightHand_dum2
      direction 0.000000 0.000000 0.000000
      length 0.000000
      axis 0.0 0.0 90.0 xyz
   end
   begin
      id 22
      name RightHandThumb1
      direction 0.000000 0.000000 1.000000
      length 3.937000
      axis 0.0 0.0 90.0 xyz
      dof rx rz ry
   end
   begin
      id 23
      name LeftShoulder
      direction 1.000000 0.000000 0.000000
      length 8.140465
      axis 0.0 0.0 -90.0 xyz
      dof rx ry rz
   end
   begin
      id 24
      name LeftArm
      direction 1.000000 0.000000 0.000000
      length 10.649840
      axis 0.0 0.0 -90.0 xyz
      dof rx ry rz
   end
   begin
      id 25
      name LeftForeArm
      direction 1.000000 0.000000 0.000000
      length 8.304624
      axis 0.0 0.0 -90.0 xyz
      dof ry rz rx
   end
   begin
      id 26
      name LeftHand
      direction 1.000000 0.000000 0.000000
      length 0.000000
      axis 0.0 0.0 -90.0 xyz
      dof rx ry rz
   end
   begin
      id 27
      name LeftHand_dum1
      direction 1.000000 0.000000 0.000000
      length 3.937000
      axis 0.0 0.0 -90.0 xyz
   end
   begin
      id 28
      name LeftHand_dum2
      direction 0.000000 0.000000 0.000000
      length 0.000000
      axis 0.0 0.0 -90.0 xyz
   end
   begin
      id 29
      name LeftHandThumb1
      direction 0.000000 0.000000 1.000000
      length 3.937000
      axis 0.0 0.0 -90.0 xyz
      dof rx rz ry
   end
   begin
      id 30
      name Head
      direction 0.000000 1.000000 0.000000
      length 4.527550
      axis 0.0 0.0 0.0 xyz
      dof rx ry rz
   end
:hierarchy
   begin
      root RightUpLeg_dum LeftUpLeg_dum Spine_dum
      RightUpLeg_dum RightUpLeg
      LeftUpLeg_dum LeftUpLeg
      Spine_dum Spine
      RightUpLeg RightLeg
      RightLeg RightFoot
      RightFoot RightToeBase
      LeftUpLeg LeftLeg
      LeftLeg LeftFoot
      LeftFoot LeftToeBase
      Spine Spine_dum1 Spine_dum2 Spine_dum3
      Spine_dum1 RightShoulder
      Spine_dum2 LeftShoulder
      Spine_dum3 Head
      RightShoulder RightArm
      RightArm RightForeArm
      RightForeArm RightHand
      RightHand RightHand_dum1 RightHand_dum2
      RightHand_dum2 RightHandThumb1
      LeftShoulder LeftArm
      LeftArm LeftForeArm
      LeftForeArm LeftHand
      LeftHand LeftHand_dum1 LeftHand_dum2
      LeftHand_dum2 LeftHandThumb1
   end

# File created by Blade
# Date/Time:  Wed Jan 21 19:13:57 2015
# Frame Rate: 120.000 fps
#------------------------------------------------------
:FULLY-SPECIFIED
:DEGREES
435
root -6.912298 34.125538 -0.398000 32.243436 56.668454 -97.264145
RightUpLeg 9.814078 -4.981094 -25.298051
RightLeg 60.478706 -0.000000 -0.000000
RightFoot 30.562708 -24.047675 19.812320
RightToeBase 41.886746 -0.000000 -0.000000
LeftUpLeg -133.584042 31.318070 -15.461982
LeftLeg -3.302082 -0.000000 0.000000
LeftFoot -4.982223 -2.892207 2.411377
LeftToeBase 6.285861 -0.000000 -0.000000
Spine -74.211488 -1.792039 25.481076
RightShoulder -36.023926 2.898063 -33.308350
RightArm -11.661628 -38.201352 43.710304
RightForeArm -20.713832 0.000000 5.075375
RightHand 6.437224 0.000000 24.885419
RightHandThumb1 -24.326973 -0.000000 -32.862282
LeftShoulder -22.306524 -14.435163 56.967795
LeftArm 45.704498 -29.067229 -12.351116
LeftForeArm 25.849872 -0.000000 11.867664
LeftHand -24.274512 0.000000 6.821686
LeftHandThumb1 -26.253704 0.000000 33.147579
Head -31.991679 32.484742 39.524537
436
root -6.950802 34.126475 -0.407323 32.399330 56.550074 -97.310112
RightUpLeg 9.905765 -4.884055 -25.240460
RightLeg 60.265254 -0.000000 -0.000000
RightFoot 30.390337 -24.250714 19.967496
RightToeBase 41.792253 -0.000000 -0.000000
LeftUpLeg -133.826024 31.434708 -15.532895
LeftLeg -3.369817 -0.000000 0.000000
LeftFoot -4.887411 -2.709697 2.561203
LeftToeBase 6.243248 -0.000000 -0.000000
Spine -74.185479 -1.733340 25.512289
RightShoulder -36.016712 2.924288 -33.320772
RightArm -11.664675 -38.483160 43.688391
RightForeArm -20.515270 0.000000 4.959835
RightHand 6.609851 0.000000 24.878960
RightHandThumb1 -24.326973 -0.000000 -32.862282
LeftShoulder -22.347808 -14.480133 56.993015
LeftArm 45.614798 -28.953984 -12.161489
LeftForeArm 25.694658 -0.000000 11.651104
LeftHand -24.216917 0.000000 6.815829
LeftHandThumb1 -26.253704 0.000000 33.147579
Head -32.132777 32.598124 39.443710
437
root -6.988226 34.127611 -0.417344 32.604106 56.400193 -97.261560
RightUpLeg 10.034521 -4.781015 -25.231800
RightLeg 60.013446 -0.000000 -0.000000
RightFoot 30.238243 -24.368037 19.909519
RightToeBase 41.858187 -0.000000 -0.000000
LeftUpLeg -134.018787 31.547669 -15.658827
LeftLeg -3.466279 -0.000000 0.000000
LeftFoot -4.810428 -2.534749 2.729771
LeftToeBase 6.196557 -0.000000 -0.000000
Spine -74.146272 -1.687382 25.470432
RightShoulder -36.042166 2.945125 -33.340507
RightArm -11.622998 -38.797604 43.655831
RightForeArm -20.325045 0.000000 4.820265
RightHand 6.805575 0.000000 24.894327
RightHandThumb1 -24.326973 -0.000000 -32.862282
LeftShoulder -22.355842 -14.430431 56.960758
LeftArm 45.493061 -28.885779 -11.885553
LeftForeArm 25.404567 -0.000000 11.506435
LeftHand -24.188937 -0.000000 6.834765
LeftHandThumb1 -26.253704 0.000000 33.147579
Head -32.244303 32.698989 39.387650
438
root -7.026881 34.128784 -0.424036 32.778827 56.241987 -97.249630
RightUpLeg 10.179956 -4.662064 -25.223375
RightLeg 59.768926 -0.000000 -0.000000
RightFoot 29.959059 -24.387208 19.976045
RightToeBase 41.834739 -0.000000 -0.000000
LeftUpLeg -134.242555 31.644604 -15.840690
LeftLeg -3.593170 -0.000000 0.000000
LeftFoot -4.720315 -2.453897 2.766214
LeftToeBase 6.220764 -0.000000 -0.000000
Spine -74.115769 -1.634192 25.469568
RightShoulder -36.023070 2.962690 -33.359462
RightArm -11.630169 -38.926745 43.590599
RightForeArm -20.274157 -0.000000 4.835371
RightHand 6.908623 -0.000000 25.047011
RightHandThumb1 -24.326973 -0.000000 -32.862282
LeftShoulder -22.394027 -14.499702 57.016653
LeftArm 45.552058 -28.907745 -11.980230
LeftForeArm 25.520132 -0.000000 11.298834
LeftHand -24.080493 -0.000000 6.759961
LeftHandThumb1 -26.253704 0.000000 33.147579
Head -32.267540 32.772532 39.342157
439
root -7.059030 34.134211 -0.429521 32.904822 56.055779 -97.333531
RightUpLeg 10.232863 -4.520274 -25.147510
RightLeg 59.562302 -0.000000 -0.000000
RightFoot 29.757836 -24.391548 19.977506
RightToeBase 41.741203 -0.000000 -0.000000
LeftUpLeg -134.528130 31.778141 -16.052835
LeftLeg -3.720639 -0.000000 0.000000
LeftFoot -4.611975 -2.462444 2.710966
LeftToeBase 6.262747 -0.000000 -0.000000
Spine -74.100051 -1.534797 25.544749
RightShoulder -35.975051 2.991184 -33.332832
RightArm -11.619104 -39.113345 43.528599
RightForeArm -20.087930 -0.000000 4.816967
RightHand 6.933290 -0.000000 25.052488
RightHandThumb1 -24.326973 -0.000000 -32.862282
LeftShoulder -22.465070 -14.474400 57.042032
LeftArm 45.555905 -28.876916 -11.929207
LeftForeArm 25.365006 -0.000000 11.165682
LeftHand -24.083041 -0.000000 6.744991
LeftHandThumb1 -26.253704 0.000000 33.147579
Head -32.263621 32.925683 39.326181
440
root -7.090921 34.140378 -0.436953 33.107824 55.844409 -97.308634
RightUpLeg 10.296935 -4.429274 -25.174148
RightLeg 59.386066 -0.000000 -0.000000
RightFoot 29.668600 -24.275776 19.769514
RightToeBase 41.787943 -0.000000 -0.000000
LeftUpLeg -134.811385 31.921659 -16.306179
LeftLeg -3.782325 -0.000000 0.000000
LeftFoot -4.582181 -2.484055 2.459845
LeftToeBase 6.478504 -0.000000 -0.000000
Spine -74.084866 -1.445212 25.529976
RightShoulder -36.006972 3.044001 -33.386584
RightArm -11.590300 -39.364681 43.490668
RightForeArm -20.236644 -0.000000 4.826272
RightHand 6.962988 -0.000000 25.250394
RightHandThumb1 -24.326973 -0.000000 -32.862282
LeftShoulder -22.517901 -14.535339 57.063778
LeftArm 45.578636 -28.836525 -11.916883
LeftForeArm 25.324567 -0.000000 11.076623
LeftHand -24.129504 -0.000000 6.729626
LeftHandThumb1 -26.253704 0.000000 33.147579
Head -32.220976 33.025490 39.332597
